<svg xmlns="http://www.w3.org/2000/svg" width="512" height="512" viewBox="0 0 512 512"><style>.a{fill:none;stroke-width:20;stroke:#000;}.b{fill:none;stroke-width:10;stroke:#000;}</style><polygon points="316.7 51.9 313.1 62.1 285 143.9 259.9 72.6 250.7 72.6 249 75.8 225.7 143.5 198.2 61.3 196.9 57.2 195.1 51.9 174.1 51.9 174.1 61.4 186.2 61.4 220.3 162.6 230.9 162.6 254.9 92.6 279.6 162.6 290.1 162.6 324.6 62.2 338.2 62.2 338.2 51.9 "/><polygon points="259.9 72.6 250 72.6 229.9 131.3 233 131.3 246.9 98.8 254.8 76.9 272.1 129.1 279.7 129.1 "/><path d="M344.6 397.4l-0.1-10.4 14 0.1v-90.2l-13.7-0.1 -0.1-10.1h43.2c19.6 0 32.8 12.3 32.8 30.6 0 10.8-3.8 19.1-10.9 24.1 8.3 5.3 13.1 14.3 13.1 25.1 0 9.3-3.5 30.9-35.8 30.9H344.6zM369.7 386.6c4.7 0.3 10 0.3 16 0.3 10.8 0 17.7-2.1 23.1-7 1.9-3.3 3.1-6 2.9-13.4 -0.1-11.9-8.6-19.5-21.6-19.5h-20.4V386.6zM390.1 336.2c6 0 9.5-1 12.9-2.6 4.1-3.8 6.6-8 6.6-16.1 0-12.2-8.7-20-22.2-20h-17.6v38.7H390.1z"/><rect x="146.8" y="286.7" width="11.2" height="110.7"/><rect x="76.7" y="286.7" width="11.2" height="110.7"/><polygon points="158 397.4 145 397.4 76.4 286.7 89.5 286.7 "/><polyline points="74.2 397.4 87.9 397.4 87.9 387.1 60.6 387.1 60.6 397.4 62.6 397.4 "/><polyline points="171.9 297 172.3 297 172.3 286.7 146.8 286.7 146.8 297 160.2 297 "/><rect x="236.3" y="399.1" width="37.9" height="11.2"/><line x1="434" y1="169.3" x2="255" y2="267.1" class="b"/><line x1="255" y1="262.4" x2="255" y2="455.5" class="b"/><line x1="76" y1="169.3" x2="255" y2="267.1" class="b"/><rect x="370" y="187.2" transform="matrix(0.4892 0.8722 -0.8722 0.4892 366.838 -240.6968)" width="37.9" height="11.2"/><rect x="102.2" y="187.2" transform="matrix(-0.4892 0.8722 -0.8722 -0.4892 348.5091 181.5782)" width="37.9" height="11.2"/></svg>